<svg width="500" height="318" viewBox="0 0 500 318" fill="none" xmlns="http://www.w3.org/2000/svg">
<path fill-rule="evenodd" clip-rule="evenodd" d="M14.6992 309L5.13672 300.5L5.13672 317.5L14.6992 309ZM12.893 309L6.33672 303.172L6.33672 314.828L12.893 309Z" fill="black"/>
<line x1="55.6" y1="301" x2="55.6" y2="317" stroke="black" stroke-width="1.2"/>
<line x1="63.6" y1="301" x2="63.6" y2="317" stroke="black" stroke-width="1.2"/>
<path fill-rule="evenodd" clip-rule="evenodd" d="M116.5 309.559L116.5 308.359L113 308.359L113 309.559L116.5 309.559Z" fill="black"/>
<path fill-rule="evenodd" clip-rule="evenodd" d="M115.596 304.909L114.996 303.869L111.965 305.619L112.565 306.659L115.596 304.909Z" fill="black"/>
<path fill-rule="evenodd" clip-rule="evenodd" d="M115.273 314.059L115.873 313.019L112.842 311.269L112.242 312.309L115.273 314.059Z" fill="black"/>
<path fill-rule="evenodd" clip-rule="evenodd" d="M110.6 316.89L101.4 313.147L101.4 304.862L110.6 301.105L110.6 316.89ZM109.4 315.106L109.4 302.891L102.6 305.668L102.6 312.34L109.4 315.106Z" fill="black"/>
<path fill-rule="evenodd" clip-rule="evenodd" d="M165.418 310.975L166.266 310.126L163.085 306.944L162.236 307.793L165.418 310.975Z" fill="black"/>
<path fill-rule="evenodd" clip-rule="evenodd" d="M163.084 310.975L162.235 310.126L165.417 306.944L166.266 307.793L163.084 310.975Z" fill="black"/>
<path fill-rule="evenodd" clip-rule="evenodd" d="M160.6 316.89L151.4 313.147L151.4 304.862L160.6 301.105L160.6 316.89ZM159.4 315.107L159.4 302.892L152.6 305.668L152.6 312.34L159.4 315.107Z" fill="black"/>
<path d="M207 303H203V307" stroke="black" stroke-width="1.5"/>
<path d="M211 315H215V311" stroke="black" stroke-width="1.5"/>
<path d="M211 303H215V307" stroke="black" stroke-width="1.5"/>
<path d="M207 315H203V311" stroke="black" stroke-width="1.5"/>
<path d="M252 306H256V302" stroke="black" stroke-width="1.5"/>
<path d="M266 312H262V316" stroke="black" stroke-width="1.5"/>
<path d="M266 306H262V302" stroke="black" stroke-width="1.5"/>
<path d="M252 312H256V316" stroke="black" stroke-width="1.5"/>
<path d="M304.241 252H315.5V263.259M302 265.5L315.125 252.375" stroke="black" stroke-width="1.2"/>
<path fill-rule="evenodd" clip-rule="evenodd" d="M408.045 202.8C404.62 202.8 401.845 205.576 401.845 209C401.845 212.424 404.62 215.2 408.045 215.2C410.328 215.2 412.324 213.966 413.401 212.125L414.436 212.731C413.154 214.924 410.772 216.4 408.045 216.4C403.958 216.4 400.645 213.087 400.645 209C400.645 204.913 403.958 201.6 408.045 201.6C412.131 201.6 415.445 204.913 415.445 209H414.245C414.245 205.576 411.469 202.8 408.045 202.8Z" fill="black"/>
<path fill-rule="evenodd" clip-rule="evenodd" d="M414.719 207.949L416.469 204.603L417.531 205.161L415.225 209.571L410.821 207.254L411.377 206.191L414.719 207.949Z" fill="black"/>
<mask id="mask0_1274_28011" style="mask-type:alpha" maskUnits="userSpaceOnUse" x="350" y="200" width="18" height="18">
<rect width="18" height="18" transform="matrix(-4.37114e-08 1 1 4.37114e-08 350 200)" fill="#FF0000"/>
</mask>
<g mask="url(#mask0_1274_28011)">
<path fill-rule="evenodd" clip-rule="evenodd" d="M358.924 203.652L351.711 210.864L352.56 211.713L358.924 205.349L365.288 211.713L366.136 210.864L358.924 203.652Z" fill="black"/>
</g>
<mask id="mask1_1274_28011" style="mask-type:alpha" maskUnits="userSpaceOnUse" x="300" y="200" width="18" height="18">
<rect width="18" height="18" transform="matrix(1.19249e-08 -1 -1 -1.19249e-08 318 218)" fill="#FF0000"/>
</mask>
<g mask="url(#mask1_1274_28011)">
<path fill-rule="evenodd" clip-rule="evenodd" d="M309.076 214.348L316.289 207.136L315.44 206.287L309.076 212.651L302.712 206.287L301.864 207.136L309.076 214.348Z" fill="black"/>
</g>
<mask id="mask2_1274_28011" style="mask-type:alpha" maskUnits="userSpaceOnUse" x="250" y="200" width="18" height="18">
<rect width="18" height="18" transform="matrix(-1 0 0 1 268 200)" fill="#FF0000"/>
</mask>
<g mask="url(#mask2_1274_28011)">
<path fill-rule="evenodd" clip-rule="evenodd" d="M264.348 208.924L257.135 201.712L256.287 202.561L262.651 208.924L256.287 215.288L257.135 216.137L264.348 208.924Z" fill="black"/>
</g>
<mask id="mask3_1274_28011" style="mask-type:alpha" maskUnits="userSpaceOnUse" x="200" y="200" width="18" height="18">
<rect width="18" height="18" transform="matrix(1 0 0 -1 200 218)" fill="#FF0000"/>
</mask>
<g mask="url(#mask3_1274_28011)">
<path fill-rule="evenodd" clip-rule="evenodd" d="M203.652 209.076L210.865 216.288L211.713 215.439L205.349 209.076L211.713 202.712L210.865 201.863L203.652 209.076Z" fill="black"/>
</g>
<path fill-rule="evenodd" clip-rule="evenodd" d="M164.95 204.8H153.05V215.1H164.95V204.8ZM151.85 203.6V216.3H166.15V203.6H151.85Z" fill="black"/>
<path fill-rule="evenodd" clip-rule="evenodd" d="M166.13 208.337H151.867V207.137H166.13V208.337Z" fill="black"/>
<path fill-rule="evenodd" clip-rule="evenodd" d="M154.833 205.954L154.833 201.7L156.033 201.7L156.033 205.954L154.833 205.954Z" fill="black"/>
<path fill-rule="evenodd" clip-rule="evenodd" d="M161.964 205.954L161.964 201.7L163.164 201.7L163.164 205.954L161.964 205.954Z" fill="black"/>
<path d="M107 203H103V207" stroke="black" stroke-width="1.5"/>
<path d="M111 215H115V211" stroke="black" stroke-width="1.5"/>
<path d="M111 203H115V207" stroke="black" stroke-width="1.5"/>
<path d="M107 215H103V211" stroke="black" stroke-width="1.5"/>
<path fill-rule="evenodd" clip-rule="evenodd" d="M64.6992 209L55.1367 200.5L55.1367 217.5L64.6992 209ZM62.893 209L56.3367 203.172L56.3367 214.828L62.893 209Z" fill="black"/>
<path fill-rule="evenodd" clip-rule="evenodd" d="M16.5 209.559L16.5 208.359L13 208.359L13 209.559L16.5 209.559Z" fill="black"/>
<path fill-rule="evenodd" clip-rule="evenodd" d="M15.5957 204.909L14.9957 203.869L11.9646 205.619L12.5646 206.659L15.5957 204.909Z" fill="black"/>
<path fill-rule="evenodd" clip-rule="evenodd" d="M15.2734 214.059L15.8734 213.019L12.8423 211.269L12.2423 212.309L15.2734 214.059Z" fill="black"/>
<path fill-rule="evenodd" clip-rule="evenodd" d="M10.5996 216.89L1.39961 213.147L1.39961 204.862L10.5996 201.105L10.5996 216.89ZM9.39961 215.106L9.39961 202.891L2.59961 205.668L2.59961 212.34L9.39961 215.106Z" fill="black"/>
<path fill-rule="evenodd" clip-rule="evenodd" d="M464.75 155.75L458.236 162.263L453.487 157.513L454.75 156.25L458.236 159.735L463.486 154.486L464.75 155.75Z" fill="black"/>
<path fill-rule="evenodd" clip-rule="evenodd" d="M360.501 102.901L366.599 109L360.501 115.099L359.652 114.25L364.902 109L359.652 103.75L360.501 102.901Z" fill="black"/>
<path fill-rule="evenodd" clip-rule="evenodd" d="M365.75 109.6L351.5 109.6L351.5 108.4L365.75 108.4L365.75 109.6Z" fill="black"/>
<path fill-rule="evenodd" clip-rule="evenodd" d="M315.3 106.7H302.7V115.3H315.3V106.7ZM301.5 105.5V116.5H316.5V105.5H301.5Z" fill="#999999"/>
<path d="M308.4 108.75H309.6V113.25H308.4V108.75Z" fill="#999999"/>
<path fill-rule="evenodd" clip-rule="evenodd" d="M306.78 103.072C306.367 103.621 306.225 104.294 306.225 104.731L306.225 106L305.025 106L305.025 104.731C305.025 104.091 305.221 103.149 305.821 102.351C306.443 101.524 307.466 100.9 309 100.9C310.535 100.9 311.558 101.524 312.18 102.351C312.78 103.149 312.975 104.091 312.975 104.731V106H311.775V104.731C311.775 104.294 311.633 103.621 311.221 103.072C310.83 102.553 310.166 102.1 309 102.1C307.835 102.1 307.171 102.553 306.78 103.072Z" fill="#999999"/>
<path fill-rule="evenodd" clip-rule="evenodd" d="M259 114.95C262.286 114.95 264.95 112.286 264.95 109C264.95 105.714 262.286 103.05 259 103.05C255.714 103.05 253.05 105.714 253.05 109C253.05 112.286 255.714 114.95 259 114.95ZM259 116C262.866 116 266 112.866 266 109C266 105.134 262.866 102 259 102C255.134 102 252 105.134 252 109C252 112.866 255.134 116 259 116Z" fill="#999999"/>
<path d="M258.477 105H259.527V106.05H258.477V105Z" fill="#999999"/>
<path d="M258.477 107.199H259.527V112.249H258.477V107.199Z" fill="#999999"/>
<path fill-rule="evenodd" clip-rule="evenodd" d="M209 114.95C212.286 114.95 214.95 112.286 214.95 109C214.95 105.714 212.286 103.05 209 103.05C205.714 103.05 203.05 105.714 203.05 109C203.05 112.286 205.714 114.95 209 114.95ZM209 116C212.866 116 216 112.866 216 109C216 105.134 212.866 102 209 102C205.134 102 202 105.134 202 109C202 112.866 205.134 116 209 116Z" fill="#999999"/>
<path fill-rule="evenodd" clip-rule="evenodd" d="M209 106.2C208.312 106.2 207.775 106.742 207.775 107.385H206.725C206.725 106.14 207.755 105.15 209 105.15C210.245 105.15 211.275 106.14 211.275 107.385C211.275 108.451 210.521 109.329 209.525 109.561V110.925H208.475V108.571H209C209.688 108.571 210.225 108.029 210.225 107.385C210.225 106.742 209.688 106.2 209 106.2Z" fill="#999999"/>
<path d="M208.475 111.8H209.525V112.85H208.475V111.8Z" fill="#999999"/>
<path d="M163.346 113L163.207 108.356L163.191 107.73L163.728 108.062L164.175 108.34L164.622 108.617L164.874 108.158L166.5 105.179L163.134 103.048L163.061 103H163.053H160.533C160.386 103.713 159.76 104.252 158.996 104.252C158.24 104.252 157.606 103.713 157.459 103H154.947L151.5 105.187L153.126 108.165L153.378 108.617L153.825 108.34L154.28 108.062L154.817 107.73L154.801 108.356L154.663 113" stroke="black" stroke-width="1.2" stroke-miterlimit="10"/>
<path d="M154 115H164" stroke="black" stroke-width="1.2" stroke-miterlimit="10"/>
<path fill-rule="evenodd" clip-rule="evenodd" d="M16.5 109.6L1.5 109.6L1.5 108.4L16.5 108.4L16.5 109.6Z" fill="black"/>
<path fill-rule="evenodd" clip-rule="evenodd" d="M16.5 115.6H1.5V114.4H16.5V115.6Z" fill="black"/>
<path fill-rule="evenodd" clip-rule="evenodd" d="M16.5 103.6H1.5L1.5 102.4H16.5V103.6Z" fill="black"/>
<path fill-rule="evenodd" clip-rule="evenodd" d="M11.4004 104.5V101.5H12.6004V104.5H11.4004Z" fill="black"/>
<path fill-rule="evenodd" clip-rule="evenodd" d="M4.65039 110.5V107.5H5.85039V110.5H4.65039Z" fill="black"/>
<path fill-rule="evenodd" clip-rule="evenodd" d="M9.90039 116.5V113.5H11.1004V116.5H9.90039Z" fill="black"/>
<path fill-rule="evenodd" clip-rule="evenodd" d="M459.563 2.85772L459.566 12.6077L458.441 12.6081L458.438 2.85808L459.563 2.85772Z" fill="black"/>
<path fill-rule="evenodd" clip-rule="evenodd" d="M454.067 6.24557L459 1.31254L463.933 6.24557L463.138 7.04106L459 2.90353L454.862 7.04106L454.067 6.24557Z" fill="black"/>
<path fill-rule="evenodd" clip-rule="evenodd" d="M452.625 9.19153H451.5V10.3165V15.5665V16.6915H452.625H465.375H466.5V15.5665V10.3165V9.19153H465.375V10.3165V10.858V15.5665H452.625V10.858V10.3165V9.19153Z" fill="black"/>
<path fill-rule="evenodd" clip-rule="evenodd" d="M102.147 3.07102L102.996 2.22249L115.85 15.0778C115.85 15.0779 115.85 15.0782 115.426 15.5025C115.002 15.9267 115.002 15.9267 115.002 15.9266L102.147 3.07102Z" fill="black"/>
<path fill-rule="evenodd" clip-rule="evenodd" d="M114.896 2.22241L115.745 3.07094L102.995 15.8208C102.995 15.8209 102.995 15.8209 102.571 15.3967C102.146 14.9724 102.147 14.9724 102.147 14.9723L114.896 2.22241Z" fill="black"/>
<path fill-rule="evenodd" clip-rule="evenodd" d="M252.259 4.25947C250.58 5.93875 250.58 8.66142 252.259 10.3407L253.089 11.17L259.17 17.2512L259.17 17.2513L266.081 10.3408C267.76 8.66148 267.76 5.93881 266.081 4.25953C264.401 2.58024 261.679 2.58024 259.999 4.25953L259.17 5.08879L258.341 4.25946C256.661 2.58018 253.939 2.58018 252.259 4.25947Z" fill="black"/>
<path fill-rule="evenodd" clip-rule="evenodd" d="M202.089 3.12935C203.768 1.45041 206.49 1.45021 208.17 3.12874L208.17 3.12935L208.999 3.95862L209.829 3.12938C211.508 1.45024 214.23 1.45024 215.909 3.12938C217.588 4.80852 217.588 7.53094 215.909 9.21007L210.769 14.3504L209.92 13.5019L215.061 8.36154C216.271 7.15104 216.271 5.18842 215.061 3.97791C213.85 2.7674 211.888 2.7674 210.677 3.97791L209.848 4.80714L208.999 5.65567L208.151 4.80714L207.322 3.97788C206.111 2.76737 204.148 2.76737 202.938 3.97788C201.727 5.18838 201.727 7.151 202.938 8.36151L208.999 14.4229L208.999 14.4228L208.999 14.4229L209.001 14.4211L209.85 15.2696L209.848 15.2714L208.999 16.1199L208.999 16.1199L208.999 16.1199L208.151 15.2714L202.089 9.21004C200.41 7.5309 200.41 4.80848 202.089 3.12935Z" fill="black"/>
<path fill-rule="evenodd" clip-rule="evenodd" d="M308.4 16.5V1.5H309.6V16.5H308.4Z" fill="black"/>
<path fill-rule="evenodd" clip-rule="evenodd" d="M301.5 8.40002L316.5 8.40002L316.5 9.60002L301.5 9.60002L301.5 8.40002Z" fill="black"/>
</svg>
