<svg width="500" height="300" viewBox="0 0 500 300" fill="none" xmlns="http://www.w3.org/2000/svg">
<path d="M471.875 253.75H455.469V255.25H471.875V253.75Z" fill="black"/>
<path d="M453.977 253.75H451.988V255.25H453.977V253.75Z" fill="black"/>
<path d="M453.977 261.25H451.988V262.75H453.977V261.25Z" fill="black"/>
<path d="M453.977 268.75H451.988V270.25H453.977V268.75Z" fill="black"/>
<path d="M471.875 261.25H455.469V262.75H471.875V261.25Z" fill="black"/>
<path d="M471.875 268.75H455.469V270.25H471.875V268.75Z" fill="black"/>
<rect x="102" y="262.75" width="20" height="9.25" fill="black"/>
<rect x="102" y="252" width="9.25" height="9.25" fill="black"/>
<rect x="112.75" y="252" width="9.25" height="9.25" fill="black"/>
<rect x="152" y="252" width="5.66667" height="9.25" fill="black"/>
<rect x="152" y="262.75" width="5.66667" height="9.25" fill="black"/>
<rect x="159.17" y="252" width="5.66667" height="9.25" fill="black"/>
<rect x="159.17" y="262.75" width="5.66667" height="9.25" fill="black"/>
<rect x="166.334" y="252" width="5.66667" height="9.25" fill="black"/>
<rect x="166.334" y="262.75" width="5.66667" height="9.25" fill="black"/>
<rect x="52.75" y="252.75" width="18.5" height="18.5" stroke="black" stroke-width="1.5"/>
<rect x="58.375" y="252.375" width="0.75" height="19.25" fill="#999999" stroke="black" stroke-width="0.75"/>
<rect x="64.375" y="252.375" width="0.75" height="19.25" fill="#999999" stroke="black" stroke-width="0.75"/>
<rect x="52.375" y="261.375" width="19.25" height="0.75" fill="#999999" stroke="black" stroke-width="0.75"/>
<rect x="11" y="252" width="1.5" height="9" fill="black"/>
<rect x="2" y="260.5" width="20" height="1.5" fill="black"/>
<path d="M2.75 252.75H21.25V271.25H2.75V252.75Z" stroke="black" stroke-width="1.5"/>
<path fill-rule="evenodd" clip-rule="evenodd" d="M362 204.939L370.986 213.926L369.925 214.986L362 207.061L354.075 214.986L353.014 213.926L362 204.939Z" fill="black"/>
<path fill-rule="evenodd" clip-rule="evenodd" d="M312 219.061L303.014 210.074L304.075 209.014L312 216.939L319.925 209.014L320.986 210.074L312 219.061Z" fill="black"/>
<path fill-rule="evenodd" clip-rule="evenodd" d="M269.061 212L260.074 220.986L259.014 219.925L266.939 212L259.014 204.075L260.074 203.014L269.061 212Z" fill="black"/>
<path fill-rule="evenodd" clip-rule="evenodd" d="M204.939 212L213.926 203.014L214.986 204.075L207.061 212L214.986 219.925L213.926 220.986L204.939 212Z" fill="black"/>
<mask id="mask0_1274_28908" style="mask-type:alpha" maskUnits="userSpaceOnUse" x="450" y="150" width="24" height="24">
<path d="M474 174L474 150L450 150L450 174L474 174Z" fill="#FF0000"/>
</mask>
<g mask="url(#mask0_1274_28908)">
<path fill-rule="evenodd" clip-rule="evenodd" d="M469.22 158.503L460.524 167.2L454.638 161.314L455.769 160.182L460.524 164.937L468.089 157.372L469.22 158.503Z" fill="black"/>
</g>
<path d="M469.34 107.465H460.607C457.146 107.465 454.34 110.271 454.34 113.732V113.732C454.34 117.194 457.146 120 460.607 120H462.673H468" stroke="black" stroke-width="1.5"/>
<path fill-rule="evenodd" clip-rule="evenodd" d="M468.662 107.509L465.065 110.803L465.989 111.807L470.591 107.592L466.364 102.999L465.358 103.921L468.662 107.509Z" fill="black"/>
<path d="M404.66 107.465H413.393C416.854 107.465 419.66 110.271 419.66 113.732V113.732C419.66 117.194 416.854 120 413.393 120H411.327C411.327 120 411.327 120 411.327 120C411.327 120 407.299 120 406 120" stroke="black" stroke-width="1.5"/>
<path fill-rule="evenodd" clip-rule="evenodd" d="M405.338 107.509L408.935 110.803L408.011 111.807L403.409 107.592L407.636 102.999L408.642 103.921L405.338 107.509Z" fill="black"/>
<path d="M121.998 103.75H102V105.25H121.998V103.75Z" fill="black"/>
<path d="M122 111.25H102V112.75H122V111.25Z" fill="black"/>
<path d="M122 118.75H102V120.25H122V118.75Z" fill="black"/>
<path fill-rule="evenodd" clip-rule="evenodd" d="M52 112.5L52 111H72L72 112.5H52Z" fill="black"/>
<path fill-rule="evenodd" clip-rule="evenodd" d="M22 112.75L2 112.75L2 111.25L22 111.25L22 112.75Z" fill="black"/>
<path fill-rule="evenodd" clip-rule="evenodd" d="M22 120.75H2V119.25H22V120.75Z" fill="black"/>
<path fill-rule="evenodd" clip-rule="evenodd" d="M22 104.75H2L2 103.25H22V104.75Z" fill="black"/>
<path fill-rule="evenodd" clip-rule="evenodd" d="M15.25 106V102H16.75V106H15.25Z" fill="black"/>
<path fill-rule="evenodd" clip-rule="evenodd" d="M6.25 114V110H7.75V114H6.25Z" fill="black"/>
<path fill-rule="evenodd" clip-rule="evenodd" d="M13.25 122V118H14.75V122H13.25Z" fill="black"/>
<path fill-rule="evenodd" clip-rule="evenodd" d="M412 60.123C412.828 60.123 413.5 59.4515 413.5 58.623C413.5 57.7946 412.828 57.123 412 57.123C411.172 57.123 410.5 57.7946 410.5 58.623C410.5 59.4515 411.172 60.123 412 60.123ZM412 61.623C413.657 61.623 415 60.2799 415 58.623C415 56.9662 413.657 55.623 412 55.623C410.343 55.623 409 56.9662 409 58.623C409 60.2799 410.343 61.623 412 61.623Z" fill="black"/>
<path fill-rule="evenodd" clip-rule="evenodd" d="M419.25 58.9352C419.25 61.8943 417.358 65.1478 415.205 67.8316C414.513 68.6942 413.819 69.4671 413.2 70.1155L414.265 71.1724C416.857 68.461 420.75 63.6114 420.75 58.9352C420.75 54.5636 416.832 50.7 412 50.7C407.168 50.7 403.25 54.5636 403.25 58.9352C403.25 65.9462 412 73.347 412 73.347C412 73.347 412.415 72.9963 413.063 72.3752L411.917 71.2375C411.842 71.1651 411.764 71.0891 411.682 71.0094C411.5 70.8307 411.303 70.6346 411.096 70.4226L410.832 70.1599L410.837 70.1545C410.209 69.4982 409.501 68.7116 408.795 67.8316C406.642 65.1478 404.75 61.8943 404.75 58.9352C404.75 55.4562 407.93 52.2 412 52.2C416.07 52.2 419.25 55.4562 419.25 58.9352Z" fill="black"/>
<path fill-rule="evenodd" clip-rule="evenodd" d="M462 73.347C462 73.347 470.75 65.9462 470.75 58.9352C470.75 54.5636 466.832 50.7 462 50.7C457.168 50.7 453.25 54.5636 453.25 58.9352C453.25 65.9462 462 73.347 462 73.347ZM462 61.6201C463.657 61.6201 465 60.277 465 58.6201C465 56.9633 463.657 55.6201 462 55.6201C460.343 55.6201 459 56.9633 459 58.6201C459 60.277 460.343 61.6201 462 61.6201Z" fill="black"/>
<path fill-rule="evenodd" clip-rule="evenodd" d="M364.5 58H369L370.5 60V66L372 66.0391L372 59.5L370 56.5H364.5L363 56.9072V57.684V66.0391L364.5 66V58ZM368.682 68V69.5H370H371H372L372 68H368.682Z" fill="black"/>
<path fill-rule="evenodd" clip-rule="evenodd" d="M363 55.5H353.5V66.0395H352V54.7767V54H352.777H363H364.5V54.7767V66.0395H363V55.5ZM355 68H352V69.5H353H355C354.988 69.4048 355.383 69.3344 355 68.5C355 68.3359 354.968 68.1545 355 68ZM359 68H365V69.5H364H359C359.012 69.4048 359 69 359 68.5C359 68.3359 359.032 68.1545 359 68Z" fill="black"/>
<circle cx="367" cy="69" r="2.25" stroke="black" stroke-width="1.5"/>
<circle cx="357" cy="69" r="2.25" stroke="black" stroke-width="1.5"/>
<path d="M304.022 53.2801C303.815 53.4981 303.695 53.835 303.695 54.2738V69.9062C303.695 70.3441 303.815 70.6819 304.022 70.899L304.073 70.9514L312.832 62.1939V61.988L304.073 53.2305L304.022 53.2801Z" stroke="black" stroke-width="1.5" stroke-miterlimit="10" stroke-linecap="round" stroke-linejoin="round"/>
<path d="M315.752 65.115L312.832 62.1936V61.9878L315.752 59.0664L319.277 61.0689C320.265 61.6322 320.265 62.5492 319.277 63.1106L315.817 65.0757L315.752 65.115Z" stroke="black" stroke-width="1.5" stroke-miterlimit="10" stroke-linecap="round" stroke-linejoin="round"/>
<path d="M315.815 59.1045L305.491 53.2374C304.886 52.8931 304.347 52.937 304.021 53.2805L312.831 62.0885L315.815 59.1045Z" stroke="black" stroke-width="1.5" stroke-miterlimit="10" stroke-linecap="round" stroke-linejoin="round"/>
<path d="M312.355 67.0427L315.815 65.0758L312.831 62.0898L304.021 70.8998C304.348 71.246 304.886 71.2881 305.491 70.9437L309.649 68.6203" stroke="black" stroke-width="1.5" stroke-miterlimit="10" stroke-linecap="square" stroke-linejoin="bevel"/>
<path d="M268.854 69.1934C270.022 67.5024 270.206 66.4884 270.219 66.4284C270.187 66.4164 267.49 65.3884 267.466 62.2764C267.442 59.6804 269.592 58.4184 269.691 58.3594C268.472 56.5844 266.587 56.3404 265.923 56.3214C264.338 56.1564 262.802 57.2684 261.996 57.2684C261.172 57.2684 259.93 56.3384 258.592 56.3664C256.866 56.3954 255.252 57.3924 254.369 58.9394C252.544 62.1004 253.905 66.7444 255.655 69.2964C256.529 70.5504 257.551 71.9454 258.889 71.8964C260.197 71.8414 260.686 71.0604 262.266 71.0604C263.829 71.0604 264.288 71.8964 265.656 71.8654C266.544 71.8504 267.223 71.3504 267.817 70.6634" stroke="black" stroke-width="1.5" stroke-miterlimit="10"/>
<path d="M266.527 50C265.41 50.049 264.015 50.772 263.21 51.716C262.499 52.548 261.861 53.912 262.026 55.195C263.277 55.287 264.566 54.56 265.374 53.61C266.145 52.646 266.67 51.333 266.527 50Z" fill="black"/>
<path d="M209.916 65.8333L215.416 61.8034L209.916 57.8333V65.8333Z" fill="black"/>
<path fill-rule="evenodd" clip-rule="evenodd" d="M205 53.5H219C219.828 53.5 220.5 54.1716 220.5 55V69C220.5 69.2613 220.433 69.507 220.316 69.7209L221.297 70.9303C221.736 70.4086 222 69.7352 222 69V55C222 53.3431 220.657 52 219 52H205C203.343 52 202 53.3431 202 55V69C202 70.6569 203.343 72 205 72H219C219.319 72 219.626 71.9503 219.914 71.8583L219.087 70.4975C219.058 70.4992 219.029 70.5 219 70.5H205C204.172 70.5 203.5 69.8284 203.5 69V55C203.5 54.1716 204.172 53.5 205 53.5Z" fill="black"/>
<path fill-rule="evenodd" clip-rule="evenodd" d="M162 64.5C163.381 64.5 164.5 63.3807 164.5 62C164.5 60.6193 163.381 59.5 162 59.5C160.619 59.5 159.5 60.6193 159.5 62C159.5 63.3807 160.619 64.5 162 64.5ZM162 66C164.209 66 166 64.2091 166 62C166 59.7909 164.209 58 162 58C159.791 58 158 59.7909 158 62C158 64.2091 159.791 66 162 66Z" fill="black"/>
<path d="M168.666 56.5833C168.666 57.2736 168.106 57.8333 167.416 57.8333C166.726 57.8333 166.166 57.2736 166.166 56.5833C166.166 55.8929 166.726 55.3333 167.416 55.3333C168.106 55.3333 168.666 55.8929 168.666 56.5833Z" fill="black"/>
<path fill-rule="evenodd" clip-rule="evenodd" d="M155 53.5H169C169.828 53.5 170.5 54.1716 170.5 55V69C170.5 69.2613 170.433 69.507 170.316 69.7209L171.297 70.9303C171.736 70.4086 172 69.7352 172 69V55C172 53.3431 170.657 52 169 52H155C153.343 52 152 53.3431 152 55V69C152 70.6569 153.343 72 155 72H169C169.319 72 169.626 71.9503 169.914 71.8583L169.087 70.4975C169.058 70.4992 169.029 70.5 169 70.5H155C154.172 70.5 153.5 69.8284 153.5 69V55C153.5 54.1716 154.172 53.5 155 53.5Z" fill="black"/>
<path fill-rule="evenodd" clip-rule="evenodd" d="M112 60.26C113.933 60.26 115.5 58.693 115.5 56.76C115.5 54.827 113.933 53.26 112 53.26C110.067 53.26 108.5 54.827 108.5 56.76C108.5 58.693 110.067 60.26 112 60.26ZM112 61.76C114.761 61.76 117 59.5214 117 56.76C117 53.9986 114.761 51.76 112 51.76C109.239 51.76 107 53.9986 107 56.76C107 59.5214 109.239 61.76 112 61.76Z" fill="black"/>
<path fill-rule="evenodd" clip-rule="evenodd" d="M103.5 65.26H120.5V68.76H122V65.26V63.76H120.5H103.5H102V65.26V68.76H103.5V65.26ZM102 70.76V72.2264H103.5H120.5H122V70.76H102Z" fill="black"/>
<path fill-rule="evenodd" clip-rule="evenodd" d="M66.0001 56L72.0001 62L66.0001 68L65.2227 67.2225L70.4452 62L65.2227 56.7775L66.0001 56Z" fill="black"/>
<path fill-rule="evenodd" clip-rule="evenodd" d="M70.5585 61.4514L57.2949 61.4514L57.2949 62.5509L70.5585 62.5509L70.5585 61.4514Z" fill="black"/>
<path d="M59.5 71H60.5V71.5H52.5V52.5H60.5V53H59.5H53.6875H53.1875V53.5V70.5V71H53.6875H59.5Z" stroke="black"/>
<path fill-rule="evenodd" clip-rule="evenodd" d="M13.2948 68L7.29481 62L13.2948 56L14.0723 56.7775L8.84972 62L14.0723 67.2225L13.2948 68Z" fill="black"/>
<path fill-rule="evenodd" clip-rule="evenodd" d="M8.73641 62.5486L22 62.5486L22 61.4491L8.73641 61.4491L8.73641 62.5486Z" fill="black"/>
<path d="M9.5 71H10.5V71.5H2.5V52.5H10.5V53H9.5H3.6875H3.1875V53.5V70.5V71H3.6875H9.5Z" stroke="black"/>
<path fill-rule="evenodd" clip-rule="evenodd" d="M462.75 3.81037L462.754 16.8104L461.254 16.8109L461.25 3.81085L462.75 3.81037Z" fill="black"/>
<path fill-rule="evenodd" clip-rule="evenodd" d="M455.423 8.32742L462 1.75006L468.577 8.32742L467.517 9.38808L462 3.87138L456.483 9.38808L455.423 8.32742Z" fill="black"/>
<path fill-rule="evenodd" clip-rule="evenodd" d="M453.5 12.2554H452V13.7554V20.7554V22.2554H453.5H470.5H472V20.7554V13.7554V12.2554H470.5V13.7554V14.4774V20.7554H453.5V14.4774V13.7554V12.2554Z" fill="black"/>
<mask id="mask1_1274_28908" style="mask-type:alpha" maskUnits="userSpaceOnUse" x="400" y="0" width="24" height="24">
<path d="M400.75 0.75H423.25V23.25H400.75V0.75Z" fill="white"/>
</mask>
<g mask="url(#mask1_1274_28908)">
<mask id="mask2_1274_28908" style="mask-type:alpha" maskUnits="userSpaceOnUse" x="401" y="1" width="23" height="22">
<path fill-rule="evenodd" clip-rule="evenodd" d="M420.939 18.3L417.081 21.0143C416.432 21.4712 415.743 21.5104 415.236 21.2417C413.72 20.4381 411.201 18.8278 408.212 15.8386C405.194 12.8203 403.642 10.3416 402.895 8.88673C402.659 8.42746 402.689 7.79751 403.104 7.17493L405.785 3.14541L408.699 6.05961L407.525 7.86106C407.209 8.34459 407.007 9.03718 407.231 9.77581C407.488 10.625 408.184 12.186 410.024 14.0266C411.809 15.8113 413.395 16.5845 414.265 16.902C415.117 17.2126 415.957 16.9613 416.523 16.5101L417.983 15.344L420.939 18.3ZM417.944 22.2411C416.927 22.957 415.632 23.1498 414.533 22.5669C412.891 21.696 410.25 19.9978 407.151 16.8993C404.023 13.7703 402.378 11.1647 401.561 9.57156C401.026 8.5302 401.206 7.31852 401.855 6.34403L405.143 1.40156L405.657 1.40443L406.175 1.41455L410.371 5.61016L410.297 6.04482L410.218 6.47615L408.781 8.68011C408.652 8.87806 408.598 9.1152 408.666 9.34136C408.851 9.95201 409.417 11.2984 411.085 12.9659C412.703 14.5844 414.098 15.2444 414.779 15.4927C415.057 15.5938 415.356 15.522 415.587 15.3379L418.095 13.3349L423.261 18.5006L417.944 22.2411Z" fill="black"/>
</mask>
<g mask="url(#mask2_1274_28908)">
<path d="M396.232 8.55273L406.176 18.4964L416.12 8.55273L406.176 -1.39095L396.232 8.55273Z" fill="black"/>
</g>
<mask id="mask3_1274_28908" style="mask-type:alpha" maskUnits="userSpaceOnUse" x="401" y="0" width="22" height="23">
<path fill-rule="evenodd" clip-rule="evenodd" d="M405.852 3.21416L403.138 7.07232C402.681 7.7217 402.642 8.41074 402.91 8.91734C403.714 10.4329 405.324 12.952 408.313 15.9412C411.332 18.9595 413.811 20.5116 415.265 21.2582C415.725 21.4939 416.355 21.464 416.977 21.0498L421.007 18.3688L418.092 15.4546L416.291 16.6287C415.808 16.9439 415.115 17.1461 414.376 16.9226C413.527 16.6656 411.966 15.9698 410.125 14.1292C408.341 12.3445 407.568 10.7584 407.25 9.8879C406.94 9.03607 407.191 8.19594 407.642 7.63071L408.808 6.17021L405.852 3.21416ZM401.911 6.20924C401.195 7.22678 401.002 8.52092 401.585 9.62006C402.456 11.2626 404.154 13.9033 407.253 17.0018C410.382 20.1308 412.987 21.7752 414.581 22.5927C415.622 23.1271 416.834 22.947 417.808 22.2986L422.751 19.0102L422.748 18.4965L422.738 17.9783L418.542 13.7827L418.107 13.8561L417.676 13.9356L415.472 15.3721C415.274 15.5011 415.037 15.5553 414.811 15.4869C414.2 15.3021 412.854 14.736 411.186 13.0685C409.568 11.4501 408.908 10.0549 408.659 9.37401C408.558 9.0968 408.63 8.7972 408.814 8.56662L410.817 6.05796L405.652 0.892293L401.911 6.20924Z" fill="black"/>
</mask>
<g mask="url(#mask3_1274_28908)">
<path fill-rule="evenodd" clip-rule="evenodd" d="M406.174 18.4963L415.455 27.7771L425.399 17.8334L416.118 8.55263L406.174 18.4963ZM416.066 19.7738L415.224 21.24L417.884 22.7684L419.645 21.8196L416.066 19.7738Z" fill="black"/>
</g>
</g>
<path fill-rule="evenodd" clip-rule="evenodd" d="M368.353 11.0363L369.5 12.0273L368.371 13.0024L366.266 11.2L366.258 11.2092L358 4.07747L358 19.9772L365.917 13.1395L367.07 14.1262L358 21.9591L356.5 23.2546V21.2726V2.78202V0.800049L358 2.0955L368.353 11.0363Z" fill="black"/>
<path fill-rule="evenodd" clip-rule="evenodd" d="M311.199 22V2H312.799V22H311.199Z" fill="black"/>
<path fill-rule="evenodd" clip-rule="evenodd" d="M302 11.2L322 11.2L322 12.8L302 12.8L302 11.2Z" fill="black"/>
<path fill-rule="evenodd" clip-rule="evenodd" d="M252.779 4.17914C250.54 6.418 250.54 10.0479 252.779 12.2868L253.884 13.3924L261.992 21.5L261.992 21.5L271.205 12.2868C273.444 10.0479 273.444 6.41804 271.205 4.17918C268.966 1.94032 265.336 1.94033 263.098 4.17918L261.992 5.28475L260.886 4.17914C258.648 1.94029 255.018 1.94029 252.779 4.17914Z" fill="black"/>
<path fill-rule="evenodd" clip-rule="evenodd" d="M211.992 5.28476L210.931 4.2241L210.886 4.17914C208.647 1.94029 205.018 1.94029 202.779 4.17914C200.54 6.41798 200.54 10.0479 202.779 12.2867L210.931 20.4392L211.992 21.4999L211.992 21.4999L211.992 21.4999L213.046 20.4461L211.6 19L211.606 18.9931L203.839 11.2261C202.186 9.573 202.186 6.89286 203.839 5.2398C205.492 3.58673 208.173 3.58673 209.826 5.2398L210.931 6.34542L211.992 7.40608L213.053 6.34542L214.158 5.2398C215.811 3.58674 218.491 3.58674 220.145 5.2398C221.798 6.89286 221.798 9.57301 220.145 11.2261L213.187 18.1834L214.248 19.2441L221.205 12.2867C223.444 10.0479 223.444 6.41799 221.205 4.17914C218.966 1.94029 215.336 1.94029 213.098 4.17914L213.053 4.2241L211.992 5.28476Z" fill="black"/>
<g opacity="0.2">
<path d="M171 12C171 16.9706 166.971 21 162 21C157.029 21 153 16.9706 153 12C153 7.02944 157.029 3 162 3C166.971 3 171 7.02944 171 12Z" fill="black"/>
<path fill-rule="evenodd" clip-rule="evenodd" d="M165.538 9.20907L159.238 15.5091L158.531 14.802L164.831 8.50196L165.538 9.20907Z" fill="white"/>
<path fill-rule="evenodd" clip-rule="evenodd" d="M164.761 15.5091L158.461 9.20906L159.168 8.50195L165.468 14.802L164.761 15.5091Z" fill="white"/>
</g>
<path fill-rule="evenodd" clip-rule="evenodd" d="M106.981 8.14205C105.522 6.68283 103.831 4.99074 102.899 4.05912L103.96 2.99846C104.891 3.93015 106.583 5.62231 108.042 7.08151L110.727 9.76698C110.727 9.76701 110.727 9.76703 110.197 10.2973L109.666 10.8275L106.981 8.14205Z" fill="black"/>
<path fill-rule="evenodd" clip-rule="evenodd" d="M117.285 18.4461C115.79 16.9516 114.063 15.2242 113.131 14.2925L114.192 13.2318C115.123 14.1634 116.851 15.8908 118.346 17.3853L121.102 20.1413L120.572 20.6718C120.042 21.2022 120.042 21.2021 120.042 21.2021L117.285 18.4461Z" fill="black"/>
<path fill-rule="evenodd" clip-rule="evenodd" d="M119.898 2.99854L120.959 4.0592L103.959 21.0591C103.959 21.0591 103.959 21.0592 103.429 20.5289C102.898 19.9985 102.898 19.9985 102.899 19.9984L119.898 2.99854Z" fill="black"/>
<path fill-rule="evenodd" clip-rule="evenodd" d="M59.8186 16.3158C63.4073 16.3158 66.3166 13.4066 66.3166 9.8179C66.3166 6.22919 63.4073 3.31997 59.8186 3.31997C56.2299 3.31997 53.3207 6.22919 53.3207 9.8179C53.3207 13.4066 56.2299 16.3158 59.8186 16.3158ZM59.8186 17.9158C64.291 17.9158 67.9166 14.2903 67.9166 9.8179C67.9166 5.34554 64.291 1.71997 59.8186 1.71997C55.3463 1.71997 51.7207 5.34554 51.7207 9.8179C51.7207 14.2903 55.3463 17.9158 59.8186 17.9158Z" fill="black"/>
<path fill-rule="evenodd" clip-rule="evenodd" d="M71.1552 22.2859L64.4883 15.6192L65.6197 14.4878L72.2866 21.1545L71.1552 22.2859Z" fill="black"/>
<path fill-rule="evenodd" clip-rule="evenodd" d="M10 16.5005C13.5899 16.5005 16.5 13.5903 16.5 10.0005C16.5 6.41064 13.5899 3.50049 10 3.50049C6.41015 3.50049 3.5 6.41064 3.5 10.0005C3.5 13.5903 6.41015 16.5005 10 16.5005ZM10 18.0005C14.4183 18.0005 18 14.4188 18 10.0005C18 5.58221 14.4183 2.00049 10 2.00049C5.58172 2.00049 2 5.58221 2 10.0005C2 14.4188 5.58172 18.0005 10 18.0005Z" fill="black"/>
<path fill-rule="evenodd" clip-rule="evenodd" d="M20.9431 22.0034L15.7812 16.8416L16.8419 15.7809L22.0038 20.9428L20.9431 22.0034Z" fill="black"/>
</svg>
