<svg width="10" height="10" viewBox="0 0 10 10" fill="none" xmlns="http://www.w3.org/2000/svg">
<path fill-rule="evenodd" clip-rule="evenodd" d="M2.23333 4.1H1.1V8.9H2.23333V4.1ZM0 3V10H3.33333V3H0Z" fill="#E2614B"/>
<path fill-rule="evenodd" clip-rule="evenodd" d="M5.9992 3V1.27698C5.9992 0.571724 5.42748 0 4.72222 0C4.27366 0 3.858 0.235348 3.62722 0.619984L2.19922 3V10H6.09621C7.58711 10 8.94778 9.15065 9.6026 7.81124C9.86355 7.27746 9.9992 6.69115 9.9992 6.097V3H5.9992ZM8.8992 4.1H4.8992V1.27698C4.8992 1.17924 4.81997 1.1 4.72222 1.1C4.66005 1.1 4.60244 1.13262 4.57046 1.18593L3.29922 3.30468V8.9H6.09621C7.16692 8.9 8.1441 8.29002 8.61437 7.32811C8.80178 6.94477 8.8992 6.5237 8.8992 6.097V4.1Z" fill="#E2614B"/>
</svg>
