<svg width="200" height="24" viewBox="0 0 200 24" fill="none" xmlns="http://www.w3.org/2000/svg">
<path fill-rule="evenodd" clip-rule="evenodd" d="M0 24H1.5701V0H0V24Z" fill="black"/>
<path fill-rule="evenodd" clip-rule="evenodd" d="M59.1719 24H61.6839V0H59.1719V24Z" fill="black"/>
<path fill-rule="evenodd" clip-rule="evenodd" d="M33.3792 11.1316H27.0729V6.47363H25.3457V17.5265H27.0729V12.7105H33.3792V17.5265H35.1064V6.47363H33.3792V11.1316Z" fill="black"/>
<path fill-rule="evenodd" clip-rule="evenodd" d="M41.1608 12.6947H46.3015V11.1474H41.1608V8.05256H47.6432V6.47363H39.4336V17.5262H47.8787V15.9472H41.1608V12.6947Z" fill="black"/>
<path fill-rule="evenodd" clip-rule="evenodd" d="M12.084 8.05256H16.1004V17.5262H17.8276V8.05256H21.8447V6.47363H12.084V8.05256Z" fill="black"/>
<path fill-rule="evenodd" clip-rule="evenodd" d="M195.289 24H199.999V0H195.289V24Z" fill="black"/>
<path fill-rule="evenodd" clip-rule="evenodd" d="M120.966 15.5367H118.899V8.46345H120.95C123.228 8.46345 124.595 9.79685 124.595 12.0001C124.595 14.1707 123.2 15.5367 120.966 15.5367ZM120.966 6.11865H116.387V17.8818H120.966C122.838 17.8818 124.609 17.2802 125.588 16.3127C126.643 15.2858 127.208 13.783 127.208 12.0001C127.208 10.2174 126.643 8.71436 125.588 7.68773C124.609 6.71994 122.838 6.11865 120.966 6.11865Z" fill="black"/>
<path fill-rule="evenodd" clip-rule="evenodd" d="M81.2384 10.8158H75.6646V6.11841H73.1523V17.8815H75.6646V13.0265H81.2384V17.8815H83.7507V6.11841H81.2384V10.8158Z" fill="black"/>
<path fill-rule="evenodd" clip-rule="evenodd" d="M177.936 12.9948H183.141V10.8474H177.936V8.32909H184.474V6.11841H175.424V17.8815H184.71V15.6712H177.936V12.9948Z" fill="black"/>
<path fill-rule="evenodd" clip-rule="evenodd" d="M148.73 15.8511C147.762 15.8511 146.932 15.5026 146.338 14.8359C145.744 14.1692 145.408 13.2163 145.408 12.0003C145.408 10.784 145.744 9.83143 146.338 9.16473C146.932 8.49773 147.762 8.14915 148.73 8.14915C149.698 8.14915 150.528 8.49773 151.122 9.16473C151.716 9.83143 152.052 10.784 152.052 12.0003C152.052 13.2163 151.716 14.1692 151.122 14.8359C150.528 15.5026 149.698 15.8511 148.73 15.8511ZM148.73 18.2372C150.52 18.2372 151.983 17.6428 153.03 16.5546C154.077 15.4664 154.665 13.9206 154.665 12.0003C154.665 10.08 154.077 8.53388 153.03 7.44601C151.983 6.35784 150.52 5.76343 148.73 5.76343C146.94 5.76343 145.477 6.35784 144.429 7.44601C143.383 8.53388 142.795 10.08 142.795 12.0003C142.795 13.9206 143.383 15.4664 144.429 16.5546C145.477 17.6428 146.94 18.2372 148.73 18.2372Z" fill="black"/>
<path fill-rule="evenodd" clip-rule="evenodd" d="M91.0605 13.1035L92.7655 8.80492L94.4704 13.1035H91.0605ZM96.3343 17.8818H98.9431L94.2774 6.11841H91.2539L86.5879 17.8818H89.1967L90.2152 15.3142H95.3161L96.3343 17.8818Z" fill="black"/>
<path fill-rule="evenodd" clip-rule="evenodd" d="M109.957 6.11865V14.3682L104.674 6.11865H101.793V17.8818H104.227V9.63227L109.51 17.8818H112.391V6.11865H109.957Z" fill="black"/>
<path fill-rule="evenodd" clip-rule="evenodd" d="M167.878 6.11865L164.632 14.26L161.386 6.11865H157.834V17.8818H160.268V9.19258L163.849 17.8818H165.415L168.996 9.19258V17.8818H171.429V6.11865H167.878Z" fill="black"/>
<path fill-rule="evenodd" clip-rule="evenodd" d="M135.829 10.8463C134.994 10.6894 134.02 10.397 133.492 10.1383C133.063 9.92835 132.802 9.59231 132.802 9.15352C132.802 8.54626 133.535 8.01009 134.874 8.01009C136.145 8.01009 137.373 8.61854 138.068 9.43877L139.759 7.84132C138.859 6.63577 137.052 5.76416 134.918 5.76416C133.737 5.76416 132.61 6.0076 131.71 6.60022C130.782 7.21166 130.189 8.17109 130.189 9.15352C130.189 10.6016 130.895 11.4454 131.775 11.9679C132.506 12.4016 133.496 12.6812 134.502 12.9076C135.254 13.0766 136.267 13.2711 136.738 13.5387C137.112 13.7514 137.372 14.0606 137.372 14.4181C137.372 15.3268 136.539 15.851 135.153 15.851C133.514 15.851 132.197 15.0075 131.47 14.1977L129.518 15.8635C130.895 17.4864 133.357 18.237 135.153 18.237C136.465 18.237 137.793 17.9804 138.755 17.1715C139.597 16.4645 140.068 15.4627 140.068 14.4181C140.068 13.614 139.832 12.9778 139.337 12.4201C138.706 11.7101 137.807 11.2181 135.829 10.8463Z" fill="black"/>
</svg>
