<svg width="24" height="24" viewBox="0 0 24 24" fill="none" xmlns="http://www.w3.org/2000/svg">
<path d="M12.0004 2C6.4775 2 2 6.47702 2 11.9998C2 16.0947 4.46237 19.6122 7.98581 21.1588C7.95759 20.4608 7.98071 19.6223 8.15985 18.8627C8.3523 18.051 9.44669 13.4136 9.44669 13.4136C9.44669 13.4136 9.12723 12.7751 9.12723 11.8313C9.12723 10.3492 9.98604 9.24272 11.0557 9.24272C11.9651 9.24272 12.4049 9.92592 12.4049 10.7439C12.4049 11.6584 11.8217 13.026 11.5218 14.2928C11.2713 15.3535 12.0537 16.2189 13.1003 16.2189C14.9951 16.2189 16.2709 13.7856 16.2709 10.9023C16.2709 8.71083 14.7948 7.07006 12.1098 7.07006C9.07628 7.07006 7.18658 9.33209 7.18658 11.8591C7.18658 12.7304 7.44332 13.3446 7.84588 13.8205C8.03089 14.0392 8.05676 14.127 7.98973 14.3779C7.94191 14.5617 7.83176 15.005 7.7859 15.1802C7.71927 15.4334 7.51427 15.524 7.28536 15.4307C5.88837 14.8604 5.2373 13.3301 5.2373 11.6102C5.2373 8.76962 7.63303 5.36345 12.3845 5.36345C16.2023 5.36345 18.7153 8.12602 18.7153 11.092C18.7153 15.0148 16.5343 17.9455 13.3194 17.9455C12.2399 17.9455 11.2243 17.3619 10.8762 16.6991C10.8762 16.6991 10.2957 19.003 10.1726 19.4479C9.96057 20.2189 9.54547 20.9895 9.16604 21.59C10.0656 21.8554 11.0154 22 12 22C17.5221 22 21.9996 17.523 21.9996 11.9998C22 6.47702 17.5225 2 12.0004 2Z" fill="black"/>
</svg>
