<svg width="24" height="24" viewBox="0 0 24 24" fill="none" xmlns="http://www.w3.org/2000/svg">
<path d="M8.28954 20C15.8372 20 19.9649 13.8449 19.9649 8.50773C19.9649 8.33329 19.9614 8.15884 19.9532 7.98556C20.7548 7.41603 21.4507 6.7044 22 5.89458C21.2653 6.21574 20.4731 6.43292 19.6433 6.52996C20.4907 6.02975 21.1409 5.23841 21.4472 4.29574C20.6538 4.75899 19.776 5.09516 18.8417 5.27653C18.0941 4.49097 17.0273 4 15.8478 4C13.5815 4 11.7436 5.8091 11.7436 8.0387C11.7436 8.35523 11.7799 8.66368 11.8504 8.95942C8.43976 8.79076 5.41529 7.18383 3.39194 4.73935C3.03984 5.33661 2.83563 6.02975 2.83563 6.7691C2.83563 8.1704 3.55977 9.40765 4.66182 10.1308C3.98932 10.11 3.35673 9.92866 2.80277 9.62599C2.80277 9.64332 2.80277 9.66065 2.80277 9.67798C2.80277 11.6349 4.21701 13.2673 6.09483 13.6381C5.74978 13.7305 5.38713 13.7802 5.01273 13.7802C4.74867 13.7802 4.49164 13.7548 4.24165 13.7074C4.76392 15.3121 6.27909 16.48 8.07476 16.5123C6.66991 17.596 4.90124 18.2417 2.97882 18.2417C2.64785 18.2417 2.32158 18.2232 2 18.1863C3.81562 19.3311 5.97277 20 8.28954 20Z" fill="black"/>
</svg>
