<?xml version="1.0" encoding="utf-8"?>
<!-- Generator: Adobe Illustrator 16.0.0, SVG Export Plug-In . SVG Version: 6.00 Build 0)  -->
<!DOCTYPE svg PUBLIC "-//W3C//DTD SVG 1.1//EN" "http://www.w3.org/Graphics/SVG/1.1/DTD/svg11.dtd">
<svg version="1.1" id="레이어_1" xmlns="http://www.w3.org/2000/svg" xmlns:xlink="http://www.w3.org/1999/xlink" x="0px"
	 y="0px" width="72px" height="36px" viewBox="0 0 72 36" enable-background="new 0 0 72 36" xml:space="preserve">
<g>
	<linearGradient id="SVGID_1_" gradientUnits="userSpaceOnUse" x1="-0.0112" y1="18" x2="70.9553" y2="18">
		<stop  offset="0" style="stop-color:#E3007F"/>
		<stop  offset="0.2" style="stop-color:#E3007F"/>
		<stop  offset="1" style="stop-color:#5F1985"/>
	</linearGradient>
	<path fill="url(#SVGID_1_)" d="M0.654,8.42c0-1.048,0.206-2.077,0.617-3.088c0.412-1.011,1.061-1.908,1.946-2.694
		s2.027-1.422,3.424-1.909C8.039,0.243,9.735,0,11.731,0c1.97,0,3.661,0.243,5.071,0.729c1.409,0.487,2.55,1.123,3.423,1.909
		s1.516,1.684,1.928,2.694c0.412,1.011,0.617,2.04,0.617,3.088v0.748c0,1.024-0.205,2.021-0.617,2.994
		c-0.412,0.973-1.054,1.853-1.928,2.638c-0.874,0.786-2.015,1.418-3.423,1.891c-1.41,0.475-3.101,0.711-5.071,0.711
		c-1.997,0-3.693-0.236-5.09-0.711c-1.397-0.473-2.539-1.104-3.424-1.891c-0.885-0.785-1.534-1.665-1.946-2.638
		c-0.412-0.973-0.617-1.97-0.617-2.994V8.42z M25.54,25.035v-1.646H4.583v-4.678h27.73v10.703H11.395v1.722h21.48V36H4.583V25.035
		H25.54z M16.185,8.645c0-1.048-0.35-1.896-1.048-2.545c-0.698-0.648-1.833-0.972-3.405-0.972c-1.572,0-2.713,0.324-3.424,0.972
		C7.596,6.749,7.241,7.597,7.241,8.645v0.299c0,1.047,0.355,1.896,1.066,2.544c0.711,0.649,1.852,0.972,3.424,0.972
		c1.571,0,2.707-0.323,3.405-0.972c0.699-0.648,1.048-1.498,1.048-2.544V8.645z M25.615,0.786h6.698v5.426h4.341v5.613h-4.341v5.95
		h-6.698V0.786z"/>
	<linearGradient id="SVGID_2_" gradientUnits="userSpaceOnUse" x1="-0.0137" y1="18.2437" x2="70.9559" y2="18.2437">
		<stop  offset="0" style="stop-color:#E3007F"/>
		<stop  offset="0.2" style="stop-color:#E3007F"/>
		<stop  offset="1" style="stop-color:#5F1985"/>
	</linearGradient>
	<path fill="url(#SVGID_2_)" d="M40.209,8.045h12.462V5.913H40.209V1.16h19.122v11.415H46.87v2.507l14.782-0.897v4.977l-21.443,1.16
		V8.045z M71.346,21.817v13.884H43.092V21.817H71.346z M49.678,27.02v3.442h15.081V27.02H49.678z M64.646,0.786h6.699v19.759h-6.699
		V0.786z"/>
</g>
</svg>
